<?xml version="1.0" encoding="utf-8"?>
<!-- Generator: Adobe Illustrator 25.2.3, SVG Export Plug-In . SVG Version: 6.00 Build 0)  -->
<svg version="1.1" id="Layer_1" xmlns="http://www.w3.org/2000/svg" xmlns:xlink="http://www.w3.org/1999/xlink" x="0px" y="0px"
	 viewBox="0 0 129 20" style="enable-background:new 0 0 129 20;" xml:space="preserve">
<style type="text/css">
	.st0{fill:#262D33;}
</style>
<path class="st0" d="M19.6,0.7l4,15.9l1.7,0.2V19h-6.9v-2.2l1.8-0.3l-2-8.9L17.9,6h-0.1l-0.4,1.6L14.1,19h-2.5L8,7.3L7.6,5.9H7.6
	L7.2,7.3l-2.1,9.2l1.9,0.3V19l-6.7,0l0-2.2L2,16.6L6,0.7l3.1,0l3.2,10.7l0.4,1.5h0.1l0.5-1.6l3.3-10.6L19.6,0.7z"/>
<path class="st0" d="M26.4,19v-2.1l1.7-0.4V8.7l-1.8-0.4V6.3h5.2v10.3l1.6,0.4V19H26.4z M28,3.6V0.7h3.5v2.9H28z"/>
<path class="st0" d="M34.1,19v-2.1l1.7-0.4V3.1l-1.8-0.4V0.7h5.2v15.9l1.7,0.4V19H34.1z"/>
<path class="st0" d="M41.8,19v-2.1l1.7-0.4V3.1l-1.8-0.4V0.7h5.2v15.9l1.7,0.4V19H41.8z"/>
<path class="st0" d="M57.1,19.2c-0.8,0-1.5-0.2-2-0.5c-0.6-0.3-1-0.8-1.4-1.3L53.4,19h-3V3.1l-1.8-0.4V0.7h5.2v6.9
	c0.4-0.5,0.8-0.9,1.3-1.2c0.5-0.3,1.2-0.4,1.9-0.4c1.5,0,2.7,0.6,3.6,1.8c0.8,1.2,1.3,2.8,1.3,4.9V13c0,1.9-0.4,3.4-1.3,4.5
	C59.8,18.7,58.6,19.2,57.1,19.2z M56,16.6c0.9,0,1.5-0.3,1.9-0.9c0.4-0.6,0.6-1.5,0.6-2.6v-0.2c0-1.2-0.2-2.2-0.6-2.9
	c-0.4-0.7-1-1.1-1.8-1.1c-0.5,0-1,0.1-1.3,0.4c-0.4,0.2-0.7,0.6-0.9,1v5.3C54.3,16.2,55.1,16.6,56,16.6z"/>
<path class="st0" d="M69.7,19.2c-1.2,0-2.3-0.3-3.2-0.8c-0.9-0.5-1.6-1.3-2.1-2.2c-0.5-0.9-0.7-2-0.7-3.2v-0.5
	c0-1.3,0.2-2.4,0.7-3.3c0.5-1,1.1-1.7,2-2.3c0.9-0.6,1.9-0.8,3-0.8c1.7,0,3,0.5,3.9,1.5c0.9,1,1.4,2.4,1.4,4.2v1.9h-7.5l0,0.1
	c0.1,0.8,0.3,1.5,0.8,2.1c0.5,0.5,1.2,0.8,2.1,0.8c0.6,0,1.2-0.1,1.7-0.2c0.5-0.2,1.1-0.4,1.6-0.7l0.9,2.1c-0.5,0.4-1.2,0.8-2,1.1
	C71.6,19.1,70.7,19.2,69.7,19.2z M67.3,11.4h4.2v-0.3c0-0.8-0.2-1.4-0.5-1.8c-0.3-0.5-0.8-0.7-1.5-0.7c-0.7,0-1.2,0.3-1.6,0.8
	C67.5,9.9,67.3,10.6,67.3,11.4L67.3,11.4z"/>
<path class="st0" d="M76.5,19v-2.1l1.6-0.4V8.7l-1.8-0.4V6.3h5l0.1,1.6l0,0.3c0.6-1.4,1.6-2.1,2.8-2.1c0.2,0,0.4,0,0.7,0
	c0.2,0,0.5,0.1,0.7,0.1l-0.4,3.2l-1.7-0.1c-0.5,0-0.9,0.1-1.2,0.2c-0.3,0.2-0.6,0.5-0.8,0.8v6.2l1.6,0.4V19H76.5z"/>
<path class="st0" d="M86.9,19v-2.1l1.6-0.4V8.7l-1.8-0.4V6.3h5l0.1,1.6l0,0.3c0.6-1.4,1.6-2.1,2.8-2.1c0.2,0,0.4,0,0.7,0
	c0.2,0,0.5,0.1,0.7,0.1l-0.4,3.2L94,9.3c-0.5,0-0.9,0.1-1.2,0.2c-0.3,0.2-0.6,0.5-0.8,0.8v6.2l1.6,0.4V19H86.9z"/>
<path class="st0" d="M97.1,19v-2.1l1.7-0.4V8.7l-1.8-0.4V6.3h5.3v10.3l1.6,0.4V19H97.1z M98.6,3.6V0.7h3.5v2.9H98.6z"/>
<path class="st0" d="M111,19.2c-1.2,0-2.3-0.3-3.2-0.8c-0.9-0.5-1.6-1.3-2.1-2.2c-0.5-0.9-0.7-2-0.7-3.2v-0.5c0-1.3,0.2-2.4,0.7-3.3
	c0.5-1,1.1-1.7,2-2.3c0.9-0.6,1.9-0.8,3-0.8c1.7,0,3,0.5,3.9,1.5c0.9,1,1.4,2.4,1.4,4.2v1.9h-7.5l0,0.1c0.1,0.8,0.3,1.5,0.8,2.1
	c0.5,0.5,1.2,0.8,2.1,0.8c0.6,0,1.2-0.1,1.7-0.2c0.5-0.2,1.1-0.4,1.6-0.7l0.9,2.1c-0.5,0.4-1.2,0.8-2,1.1
	C113,19.1,112.1,19.2,111,19.2z M108.6,11.4h4.2v-0.3c0-0.8-0.2-1.4-0.5-1.8c-0.3-0.5-0.8-0.7-1.5-0.7c-0.7,0-1.2,0.3-1.6,0.8
	C108.9,9.9,108.6,10.6,108.6,11.4L108.6,11.4z"/>
<path class="st0" d="M123,19.2c-0.9,0-1.8-0.1-2.6-0.3c-0.8-0.2-1.6-0.4-2.3-0.8l0-3.6h2.4l0.5,1.8c0.3,0.1,0.6,0.2,0.9,0.3
	c0.3,0.1,0.7,0.1,1.1,0.1c0.8,0,1.3-0.1,1.6-0.4c0.3-0.2,0.5-0.6,0.5-0.9c0-0.4-0.2-0.7-0.5-0.9c-0.3-0.3-1-0.5-2-0.7
	c-1.5-0.3-2.6-0.8-3.3-1.5c-0.7-0.7-1.1-1.5-1.1-2.5c0-0.7,0.2-1.3,0.5-1.9c0.4-0.6,0.9-1.1,1.6-1.4c0.7-0.4,1.7-0.5,2.8-0.5
	c1,0,1.8,0.1,2.6,0.3c0.8,0.2,1.5,0.4,2,0.7l0,3.5h-2.4l-0.4-1.7c-0.5-0.3-1-0.5-1.7-0.5c-0.6,0-1.1,0.1-1.4,0.4
	c-0.3,0.2-0.5,0.6-0.5,0.9c0,0.3,0.1,0.6,0.4,0.9c0.3,0.3,0.9,0.5,1.9,0.7c1.6,0.4,2.7,0.8,3.4,1.4c0.7,0.6,1.1,1.4,1.1,2.5
	c0,1.2-0.4,2.1-1.3,2.9C126,18.9,124.7,19.2,123,19.2z"/>
</svg>
